<?xml version="1.0" encoding="utf-8"?>
<!-- Generator: Adobe Illustrator 18.1.1, SVG Export Plug-In . SVG Version: 6.00 Build 0)  -->
<svg version="1.1" id="Layer_1" xmlns="http://www.w3.org/2000/svg" xmlns:xlink="http://www.w3.org/1999/xlink" x="0px" y="0px"
	 viewBox="0 0 1080 1080" enable-background="new 0 0 1080 1080" xml:space="preserve">
<g>
	<g>
		<path fill="#F7931E" d="M255.7,538L255.7,538h31.8c-0.2-5-1.2-9.3-2.7-13.4c-4.4,1-9,1.4-13.7,1.4c-4.3,0-8.6-0.3-12.7-1.1
			C256.7,529,255.7,533,255.7,538z"/>
		<path fill="#F7931E" d="M275.6,503.9c4.8,4.4,8.8,9.7,11.6,15.7c3.7-1,7.3-2.4,10.6-4.2C292.2,509.2,284.4,505,275.6,503.9z"/>
		<path fill="#F7931E" d="M260,520.8c4,0.7,7.2,1,11,1c4.1,0,8.1-0.4,12-1.2c0,0,0,0,0,0v0c-2-5.7-6.7-10.7-11.4-14.7
			C266.6,510,263,515.1,260,520.8C260,520.8,260,520.8,260,520.8z"/>
		<path fill="#F7931E" d="M284.8,555.5c1.6-4.2,2.5-9.5,2.7-13.5h-31.7c0.2,4,1.1,9,2.6,13.2c4.1-0.8,8.3-1.2,12.6-1.2
			C275.7,554,280.3,554.5,284.8,555.5"/>
		<path fill="#F7931E" d="M283,559.4L283,559.4C283,559.4,283,559.4,283,559.4c-3.9-0.8-7.9-1.2-12-1.2c-3.7,0-7.4,0.3-11,1
			c2.7,5.7,6.6,10.7,11.6,14.9C276.4,570,280.3,565,283,559.4C283,559.4,283,559.4,283,559.4z"/>
		<path fill="#F7931E" d="M255.9,519.8c2.8-6.1,6.8-11.6,11.9-16.1c-9.3,0.8-17.6,5.2-23.6,11.7
			C247.9,517.3,251.8,518.8,255.9,519.8z"/>
		<path fill="#F7931E" d="M288.8,556.4c4.1,1.2,8,2.9,11.7,4.8c4-5.5,6.4-12.2,6.8-19.2h-15.7C291.4,547,290.4,552,288.8,556.4"/>
		<path fill="#F7931E" d="M251.6,538c0.2-5,1.1-9.7,2.7-14.2c-4.5-1.2-8.8-2.9-12.8-5c-3.9,5.4-6.4,11.2-6.8,19.2H251.6z"/>
		<path fill="#F7931E" d="M288.8,523.5c1.6,4.5,2.6,9.5,2.8,14.5h15.7c-0.4-8-2.9-13.7-6.8-19.2
			C296.8,520.8,292.9,522.3,288.8,523.5z"/>
		<path fill="#F7931E" d="M275.6,576c8.8-1.1,16.5-5.3,22.2-11.5c-3.4-1.7-6.9-3.1-10.6-4.2C284.4,566.4,280.5,571.7,275.6,576z"/>
		<path fill="#F7931E" d="M267.8,576.2c-5.1-4.6-9.1-10-11.9-16.1c-4.1,1.1-8,2.6-11.7,4.4C250.2,571,258.5,575.4,267.8,576.2z"/>
		<path fill="#F7931E" d="M251.6,542h-16.9c0.4,7,2.9,13.8,6.8,19.2c4-2.1,8.3-3.8,12.8-5.1C252.8,551.6,251.8,546,251.6,542z"/>
		<g>
			<g>
				<path fill="#613BBF" d="M319,546v67.3c0,13.7,11.6,24.7,25.3,24.7h-0.1c13.7,0,24.8-11,24.8-24.7V546H319z"/>
				<path fill="#613BBF" d="M369,534v-67.4c0-13.7-11.1-24.6-24.8-24.6h0c-13.7,0-25.2,10.9-25.2,24.6V534H369z"/>
			</g>
			<path fill="#613BBF" d="M292.5,609.6c0-11.8-9.6-21.2-21.4-21.1c-0.1,0-0.2,0-0.2,0c-26.8,0-48.6-21.7-48.6-48.5
				s21.8-48.5,48.6-48.5c0.1,0,0.2,0,0.2,0c11.7,0.1,21.3-9.3,21.3-21.1v-7c0-11.8-9.5-21.5-21.4-21.5c-0.1,0-0.1,0-0.2,0
				c-54.2,0-98.2,43.9-98.2,98.2s44,98.2,98.2,98.2c0.1,0,0.1,0,0.2,0c11.8,0,21.4-9.7,21.4-21.5V609.6z"/>
		</g>
	</g>
	<g>
		<path fill="#F7931E" d="M474,520.7h32.1l0,0c0,2.8-0.8,5.5-2.3,7.9l-24,38.1h22.5c2.4,0,4.4,2,4.4,4.4l0,0c0,2.4-2,4.4-4.4,4.4
			h-35.9l0,0c0-3.2,0.9-6.4,2.6-9.1l23.4-36.9H474c-2.4,0-4.4-2-4.4-4.4l0,0C469.6,522.7,471.6,520.7,474,520.7z"/>
		<path fill="#F7931E" d="M521.4,552.6c2,7.6,8.2,13.3,15.8,13.3c3.5,0,6.9-0.8,9.6-2.3c1.9-1,4.2-0.8,5.8,0.7l0,0
			c2.3,2.2,1.9,6-0.8,7.7c-4.1,2.5-9.1,3.8-14.5,3.8c-7.2,0-13.6-2.7-18.2-7.4c-5-5-8-12.4-8-20.4c0-15.1,11.8-27.4,26.3-27.4
			c6.7,0,12.5,2.6,16.9,6.9c3.6,3.5,7.1,9,7.1,19.3c0,0,0,0,0,0.1c0,3.2-2.7,5.9-5.9,5.9H521.4z M521.3,543.8h30.6
			c-1.2-7.8-7.2-13.5-15-13.5C529.1,530.4,523,536.2,521.3,543.8z"/>
		<path fill="#613BBF" d="M606.9,529.9c-1.3,2.1-4,2.8-6.2,1.8c-1.9-0.8-3.9-1.3-6.2-1.3c-9.3,0.1-16.2,8.5-16.2,18
			c0.1,9.6,7.6,17.6,16.6,17.5c3.1,0,6-1,8.5-2.6c1.9-1.3,4.5-1,6.1,0.6l0,0c2.3,2.2,1.9,5.9-0.7,7.7c-4,2.6-8.7,4.2-13.8,4.2
			c-15.1,0.1-26.4-11.6-26.6-27.4c0-7.7,3-14.8,7.9-19.8c4.7-5,11-7.9,18.2-8c3.6,0,7,0.7,10.3,2.2c2.7,1.2,3.7,4.6,2.1,7.1
			L606.9,529.9z"/>
		<path fill="#613BBF" d="M645.8,520.5c14.8,0,26.3,12.2,26.3,27.6s-11.5,27.6-26.3,27.6c-14.8,0-26.3-12.2-26.3-27.6
			S631,520.5,645.8,520.5z M645.8,565.9c9.4,0,16.4-7.8,16.4-17.7c0-10-7-17.7-16.4-17.7c-9.4,0-16.4,7.8-16.4,17.7
			C629.3,558.1,636.3,565.9,645.8,565.9z"/>
		<path fill="#613BBF" d="M685,575.5L685,575.5c-2.6,0-4.7-2.1-4.7-4.7v-45.5c0-2.6,2.1-4.7,4.7-4.7l0,0c2.6,0,4.7,2.1,4.7,4.7v3.6
			c4.6-4.9,11.9-8.4,18.9-8.4c9.5,0,16.5,7.4,16.5,17.4v32.9c0,2.6-2.1,4.7-4.7,4.7l0,0c-2.6,0-4.7-2.1-4.7-4.7v-28.4
			c0-7.8-3.5-12.4-10.4-12.4c-8.1,0-15.4,6.7-15.6,15l-0.2,25.8C689.6,573.4,687.5,575.5,685,575.5z"/>
		<path fill="#613BBF" d="M733.8,520.7h6.6v-12c0-2.4,2-4.4,4.4-4.4h0.5c2.4,0,4.4,2,4.4,4.4v12h8.2c2.4,0,4.4,2,4.4,4.4l0,0
			c0,2.4-2,4.4-4.4,4.4h-8.2v41.6c0,2.4-2,4.4-4.4,4.4h-0.5c-2.4,0-4.4-2-4.4-4.4v-41.6h-6.6c-2.4,0-4.4-2-4.4-4.4l0,0
			C729.5,522.7,731.4,520.7,733.8,520.7z"/>
		<path fill="#613BBF" d="M777.1,552.6c2,7.6,8.2,13.3,15.8,13.3c3.5,0,6.9-0.8,9.6-2.3c1.9-1,4.2-0.8,5.8,0.7l0,0
			c2.3,2.2,1.9,6-0.8,7.7c-4.1,2.5-9.1,3.8-14.5,3.8c-7.2,0-13.6-2.7-18.2-7.4c-5-5-8-12.4-8-20.4c0-15.1,11.8-27.4,26.3-27.4
			c6.7,0,12.5,2.6,16.9,6.9c3.6,3.5,7.1,9,7.1,19.3c0,0,0,0,0,0.1c0,3.2-2.7,5.9-5.9,5.9H777.1z M777,543.8h30.6
			c-1.2-7.8-7.2-13.5-15-13.5C784.8,530.4,778.6,536.2,777,543.8z"/>
		<path fill="#613BBF" d="M829.9,575.5L829.9,575.5c-2.6,0-4.7-2.1-4.7-4.7v-45.5c0-2.6,2.1-4.7,4.7-4.7l0,0c2.6,0,4.7,2.1,4.7,4.7
			v3.6c4.6-4.9,11.9-8.4,18.9-8.4c9.5,0,16.5,7.4,16.5,17.4v32.9c0,2.6-2.1,4.7-4.7,4.7l0,0c-2.6,0-4.7-2.1-4.7-4.7v-28.4
			c0-7.8-3.5-12.4-10.4-12.4c-8.1,0-15.4,6.7-15.6,15l-0.2,25.8C834.5,573.4,832.4,575.5,829.9,575.5z"/>
		<path fill="#613BBF" d="M878.7,520.7h6.6v-12c0-2.4,2-4.4,4.4-4.4h0.5c2.4,0,4.4,2,4.4,4.4v12h8.2c2.4,0,4.4,2,4.4,4.4l0,0
			c0,2.4-2,4.4-4.4,4.4h-8.2v41.6c0,2.4-2,4.4-4.4,4.4h-0.5c-2.4,0-4.4-2-4.4-4.4v-41.6h-6.6c-2.4,0-4.4-2-4.4-4.4l0,0
			C874.4,522.7,876.3,520.7,878.7,520.7z"/>
		<path fill="#F7931E" d="M448.8,567.8c-4.4,4.4-10.7,7.9-17.2,7.9c-15.1,0-26.1-11.8-26.1-27.6c0-15.1,11.8-27.6,26.3-27.6
			c6.5,0,12.6,3.5,17,7.9v-3c0-2.6,2.1-4.7,4.7-4.7h0c2.6,0,4.7,2.1,4.7,4.7v45.5c0,2.6-2.1,4.7-4.7,4.7h0c-2.6,0-4.7-2.1-4.7-4.7
			V567.8z M431.8,565.9c9.7,0,16.4-8.1,16.4-17.7c0-9.6-6.7-17.7-16.4-17.7c-9.1,0-16.4,8.1-16.4,17.7
			C415.4,557.8,422.7,565.9,431.8,565.9z"/>
	</g>
</g>
</svg>
